<?xml version="1.0" standalone="no"?>
<!DOCTYPE svg PUBLIC "-//W3C//DTD SVG 20010904//EN"
 "http://www.w3.org/TR/2001/REC-SVG-20010904/DTD/svg10.dtd">
<svg version="1.0" xmlns="http://www.w3.org/2000/svg"
 width="130.000000pt" height="74.000000pt" viewBox="0 0 130.000000 74.000000"
 preserveAspectRatio="xMidYMid meet">
<metadata>
Created by potrace 1.10, written by Peter Selinger 2001-2011
</metadata>
<g transform="translate(0.000000,74.000000) scale(0.100000,-0.100000)"
fill="#000000" stroke="none">
<path d="M194 597 c-2 -7 -3 -109 -2 -227 l3 -215 28 -3 29 -4 -4 201 c-1 111
-2 201 -1 201 1 0 15 -26 31 -58 39 -77 172 -314 185 -330 6 -7 24 -12 41 -10
l31 3 0 225 0 225 -25 0 -24 0 2 -190 c1 -133 -1 -186 -8 -175 -6 8 -45 78
-86 155 -112 208 -118 215 -159 215 -20 0 -38 -6 -41 -13z"/>
<path d="M670 590 c-7 -12 -9 -95 -8 -227 l3 -208 27 -3 28 -3 2 207 3 207 79
-203 c44 -111 86 -205 94 -208 8 -3 21 -1 29 4 8 5 50 96 93 202 43 107 81
196 84 199 3 4 6 -87 6 -200 l0 -207 25 0 25 0 -2 228 -3 227 -33 3 c-18 2
-39 -1 -46 -7 -7 -6 -46 -90 -86 -186 -40 -97 -76 -172 -80 -168 -3 4 -37 85
-74 178 -38 94 -73 173 -80 177 -23 16 -75 8 -86 -12z"/>
</g>
</svg>
